<svg width="144" height="144" viewBox="0 0 144 144" fill="none" xmlns="http://www.w3.org/2000/svg">
<g clip-path="url(#clip0_2_5094)">
<path d="M0 0H93.84C100.84 6.97 107.77 14.03 114.84 20.95C118.3 17.19 122.59 13.44 128.03 13.51C135.73 12.96 142.71 19.15 144 26.59V31.02C143.33 34.19 141.93 37.24 139.61 39.54C132.14 47.05 124.62 54.52 117.16 62.05C117.11 89.36 117.16 116.68 117.14 144H0L0 0ZM8.73 9.77C9.26 11.47 9.15 13.25 8.96 15C8.82 27.98 9.25 40.96 8.93 53.95C8.81 80.9 9.27 107.82 8.84 134.76C40.55 135.01 72.26 134.76 103.96 134.88C105.38 134.91 106.8 134.79 108.21 134.6C107.66 126.4 108.29 118.19 107.95 110C108.45 105.99 107.61 101.97 107.92 97.95C108.11 95.3 108.24 92.65 107.96 90C108.31 81.65 107.98 73.29 107.96 64.94C107.99 62.94 108.54 60.82 107.68 58.92C112.25 54.21 116.94 49.63 121.55 44.96C124.56 42.02 127.48 38.98 130.48 36.03C132.39 34.03 135.09 32.04 134.88 28.96C135.28 25.58 132.28 22.57 129 22.48C125.69 22.1 123.52 25.04 121.4 27.06C118.43 30.05 115.45 33.01 112.48 35.99C111.04 37.46 109.56 38.89 108.11 40.36C108.21 35.94 108.09 31.52 108.13 27.1C102.19 21.25 96.43 15.21 90.35 9.52L90.4 8.89C64.6 8.81 38.8 8.9 13 8.84C11.53 8.92 9.81 8.49 8.73 9.77Z" fill="black"/>
<path d="M8.72998 9.76986C9.80998 8.48986 11.53 8.91986 13 8.83986C38.8 8.89986 64.6 8.80986 90.4 8.88986L90.35 9.51986C89.8 15.2599 89.57 21.0399 90.14 26.7899C95.74 26.9699 101.34 26.6399 106.93 27.1899C107.03 31.8999 106.92 36.6099 107.17 41.3199C99.88 48.5499 92.68 55.8599 85.36 63.0599C65.93 62.5999 46.48 63.0099 27.03 62.8499C23.97 62.7899 20.91 62.8699 17.86 63.1799C17.86 64.5899 17.87 65.9999 17.86 67.4099C38.91 67.5499 59.96 67.4099 81 67.4799C77.97 70.5099 74.94 73.5299 71.9 76.5499C53.89 76.4899 35.87 76.4699 17.86 76.5599C17.87 77.9699 17.87 79.3799 17.86 80.7899C34.33 81.3299 50.83 80.5399 67.29 81.1899C64.3 84.1799 61.3 87.1599 58.31 90.1399C44.82 90.1799 31.34 89.8599 17.86 90.1999C17.87 91.5999 17.87 92.9999 17.86 94.4099C29.91 94.5499 41.95 94.4099 54 94.4799C51.06 97.4799 47.97 100.33 45.15 103.44C36.08 103.54 27.02 103.41 17.95 103.51C17.91 104.93 17.86 106.35 17.82 107.78C26.11 107.96 34.41 107.78 42.71 107.88C41.97 109.41 41.29 110.97 40.54 112.5C39.75 114.05 38.91 115.57 38.14 117.12C31.38 117.16 24.62 117.04 17.86 117.2C17.87 118.61 17.87 120.02 17.86 121.44C24.28 121.27 30.8 122.04 37.15 121.04C39.75 119.67 42.35 118.3 45 117.02C48.11 115.44 51.32 114.03 54.3 112.2C55.81 110.79 57.22 109.29 58.67 107.83C70.59 107.88 82.52 107.85 94.44 107.85C94.45 106.4 94.47 104.96 94.49 103.51C84.02 103.39 73.55 103.58 63.08 103.41C66.06 100.4 69.07 97.4099 72.08 94.4299C78 94.4899 83.93 94.4899 89.86 94.4399C89.86 93.0099 89.85 91.5699 89.86 90.1399C85.46 90.1699 81.06 90.1199 76.67 89.7999C79.66 86.8099 82.65 83.8299 85.65 80.8499C90.14 80.8899 94.62 80.9299 99.11 80.7899C99.1 79.3799 99.11 77.9799 99.12 76.5699C96.08 76.5099 93.05 76.4799 90.02 76.4899C95.92 70.6599 101.73 64.7099 107.68 58.9199C108.54 60.8199 107.99 62.9399 107.96 64.9399C107.98 73.2899 108.31 81.6499 107.96 89.9999C108.24 92.6499 108.11 95.2999 107.92 97.9499C107.61 101.97 108.45 105.99 107.95 110C108.29 118.19 107.66 126.4 108.21 134.6C106.8 134.79 105.38 134.91 103.96 134.88C72.26 134.76 40.55 135.01 8.83998 134.76C9.26998 107.82 8.80998 80.8999 8.92998 53.9499C9.24998 40.9599 8.81998 27.9799 8.95998 14.9999C9.14998 13.2499 9.25998 11.4699 8.72998 9.76986ZM18.05 22.4399C17.95 23.8799 17.87 25.3299 17.8 26.7799C31.35 26.9399 44.91 26.8199 58.46 26.8799C58.46 25.4099 58.47 23.9499 58.48 22.4799C45.01 22.3899 31.53 22.4799 18.05 22.4399ZM17.83 40.4099C44.93 40.4999 72.03 40.5199 99.12 40.3999C99.11 39.0099 99.09 37.6299 99.08 36.2399C97.74 36.0199 96.39 35.8999 95.04 35.8499C70 35.8899 44.95 35.8599 19.91 35.8599C17.17 35.4199 17.92 38.7899 17.83 40.4099ZM18.09 49.5199C18.1 50.9699 18.11 52.4199 18.12 53.8699C42.04 53.8399 65.94 54.0699 89.85 53.8699C89.86 52.4199 89.86 50.9799 89.87 49.5299C65.95 49.4999 42.02 49.5099 18.09 49.5199Z" fill="white"/>
<path d="M90.3499 9.52002C96.4299 15.21 102.19 21.25 108.13 27.1C108.09 31.52 108.21 35.94 108.11 40.36C107.87 40.6 107.41 41.08 107.17 41.32C106.92 36.61 107.03 31.9 106.93 27.19C101.34 26.64 95.7399 26.97 90.1399 26.79C89.5699 21.04 89.7999 15.26 90.3499 9.52002Z" fill="#E5E5E5"/>
<path d="M18.0498 22.4402C31.5298 22.4802 45.0098 22.3902 58.4798 22.4802C58.4698 23.9502 58.4598 25.4102 58.4598 26.8802C44.9098 26.8202 31.3498 26.9402 17.7998 26.7802C17.8698 25.3302 17.9498 23.8802 18.0498 22.4402Z" fill="#A5A5A5"/>
<path d="M17.8296 40.4101C17.9196 38.7901 17.1696 35.4201 19.9096 35.8601C44.9496 35.8601 69.9996 35.8901 95.0396 35.8501C96.3896 35.9001 97.7396 36.0201 99.0796 36.2401C99.0896 37.6301 99.1096 39.0101 99.1196 40.4001C72.0296 40.5201 44.9296 40.5001 17.8296 40.4101Z" fill="#A5A5A5"/>
<path d="M18.0898 49.5203C42.0198 49.5103 65.9498 49.5003 89.8698 49.5303C89.8598 50.9803 89.8598 52.4203 89.8498 53.8703C65.9398 54.0703 42.0398 53.8403 18.1198 53.8703C18.1098 52.4203 18.0998 50.9703 18.0898 49.5203Z" fill="#A5A5A5"/>
<path d="M17.8584 63.1795C20.9084 62.8695 23.9684 62.7895 27.0284 62.8495C46.4784 63.0095 65.9284 62.5995 85.3584 63.0595C83.8984 64.5295 82.4584 66.0095 80.9984 67.4795C59.9584 67.4095 38.9084 67.5495 17.8584 67.4095C17.8684 65.9995 17.8584 64.5895 17.8584 63.1795Z" fill="#A5A5A5"/>
<path d="M17.8584 76.5603C35.8684 76.4703 53.8884 76.4903 71.8984 76.5503C70.3584 78.1003 68.8284 79.6503 67.2884 81.1903C50.8284 80.5403 34.3284 81.3303 17.8584 80.7903C17.8684 79.3803 17.8684 77.9703 17.8584 76.5603Z" fill="#A5A5A5"/>
<path d="M85.6514 80.8492C87.1114 79.3992 88.5614 77.9492 90.0214 76.4892C93.0514 76.4792 96.0814 76.5092 99.1214 76.5692C99.1114 77.9792 99.1014 79.3792 99.1114 80.7892C94.6214 80.9292 90.1414 80.8892 85.6514 80.8492Z" fill="#A5A5A5"/>
<path d="M17.8584 90.2002C31.3384 89.8602 44.8184 90.1802 58.3084 90.1402C56.8684 91.5902 55.4384 93.0402 53.9984 94.4802C41.9484 94.4102 29.9084 94.5502 17.8584 94.4102C17.8684 93.0002 17.8684 91.6002 17.8584 90.2002Z" fill="#A5A5A5"/>
<path d="M72.0811 94.4298C73.6111 92.8798 75.1311 91.3398 76.6711 89.7998C81.0611 90.1198 85.4611 90.1698 89.8611 90.1398C89.8511 91.5698 89.8611 93.0098 89.8611 94.4398C83.9311 94.4898 78.0011 94.4898 72.0811 94.4298Z" fill="#A5A5A5"/>
<path d="M17.9498 103.51C27.0198 103.41 36.0798 103.54 45.1498 103.44L45.0798 103.54C44.2298 104.95 43.4298 106.4 42.7098 107.88C34.4098 107.78 26.1098 107.96 17.8198 107.78C17.8598 106.35 17.9098 104.93 17.9498 103.51Z" fill="#A5A5A5"/>
<path d="M58.6709 107.831C60.1309 106.351 61.6109 104.891 63.0809 103.411C73.5509 103.581 84.0209 103.391 94.4909 103.511C94.4709 104.961 94.4509 106.401 94.4409 107.851C82.5209 107.851 70.5909 107.881 58.6709 107.831Z" fill="#A5A5A5"/>
<path d="M17.8584 117.2C24.6184 117.04 31.3784 117.16 38.1384 117.12C37.7384 118.41 37.4484 119.73 37.1484 121.04C30.7984 122.04 24.2784 121.27 17.8584 121.44C17.8684 120.02 17.8684 118.61 17.8584 117.2Z" fill="#A5A5A5"/>
<path d="M121.398 27.0607C123.518 25.0407 125.688 22.1007 128.998 22.4807C132.278 22.5707 135.278 25.5807 134.878 28.9607C135.088 32.0407 132.388 34.0307 130.478 36.0307C127.548 32.9407 124.578 29.8907 121.398 27.0607Z" fill="#EE9889"/>
<path d="M112.48 35.9901C115.45 33.0101 118.43 30.0501 121.4 27.0601C124.58 29.8901 127.55 32.9401 130.48 36.0301C127.48 38.9801 124.56 42.0201 121.55 44.9601C118.49 42.0101 115.51 38.9801 112.48 35.9901Z" fill="#CCCCCC"/>
<path d="M108.108 40.3602C109.558 38.8902 111.038 37.4602 112.478 35.9902C115.508 38.9802 118.488 42.0102 121.548 44.9602C116.938 49.6302 112.248 54.2102 107.678 58.9202C101.728 64.7102 95.9181 70.6602 90.0181 76.4902C88.5581 77.9502 87.1081 79.4002 85.6481 80.8502C82.6481 83.8302 79.6581 86.8102 76.6681 89.8002C75.1281 91.3402 73.6081 92.8802 72.0781 94.4302C69.0681 97.4102 66.0581 100.4 63.0781 103.41C61.6081 104.89 60.1281 106.35 58.6681 107.83C57.2181 109.29 55.8081 110.79 54.2981 112.2C54.1281 110.86 53.9581 109.53 53.7881 108.19C52.3881 108.03 50.9981 107.88 49.6081 107.71C49.5481 106.28 49.4881 104.86 49.4281 103.43C47.9781 103.46 46.5281 103.5 45.0781 103.54L45.1481 103.44C47.9681 100.33 51.0581 97.4802 53.9981 94.4802C55.4381 93.0402 56.8681 91.5902 58.3081 90.1402C61.2981 87.1602 64.2981 84.1802 67.2881 81.1902C68.8281 79.6502 70.3581 78.1002 71.8981 76.5502C74.9381 73.5302 77.9681 70.5102 80.9981 67.4802C82.4581 66.0102 83.8981 64.5302 85.3581 63.0602C92.6781 55.8602 99.8781 48.5502 107.168 41.3202C107.408 41.0802 107.868 40.6002 108.108 40.3602Z" fill="#FFC83D"/>
<path d="M45.08 103.54C46.53 103.5 47.98 103.46 49.43 103.43C49.49 104.86 49.55 106.28 49.61 107.71C51 107.88 52.39 108.03 53.79 108.19C53.96 109.53 54.13 110.86 54.3 112.2C51.32 114.03 48.11 115.44 45 117.02C43.51 115.51 42.03 114 40.54 112.5C41.29 110.97 41.97 109.41 42.71 107.88C43.43 106.4 44.23 104.95 45.08 103.54Z" fill="#F7D7C4"/>
<path d="M40.5384 112.5C42.0284 114 43.5084 115.51 44.9984 117.02C42.3484 118.3 39.7484 119.67 37.1484 121.04C37.4484 119.73 37.7384 118.41 38.1384 117.12C38.9084 115.57 39.7484 114.05 40.5384 112.5Z" fill="#757575"/>
</g>
<defs>
<clipPath id="clip0_2_5094">
<rect width="144" height="144" fill="white"/>
</clipPath>
</defs>
</svg>
