<svg width="144" height="144" viewBox="0 0 144 144" fill="none" xmlns="http://www.w3.org/2000/svg">
<g clip-path="url(#clip0_2_5067)">
<path d="M96.72 19.8498C101.05 17.2798 106.25 18.3298 111.02 18.0998C116.56 18.2098 122.49 17.0298 127.67 19.5298C130.82 20.9698 132.69 23.9998 134.45 26.8098C137.64 26.8598 140.82 26.8598 144 26.8698V117.12C141.07 117.12 138.15 117.11 135.23 117.09C135.07 118.56 134.91 120.04 134.76 121.52C131.81 121.51 128.86 121.51 125.91 121.53C125.86 123.07 125.81 124.62 125.76 126.17C83.84 125.69 41.91 126.31 0 125.87V35.8698C3.2 35.8598 6.4 35.8598 9.6 35.8098C11.96 31.4998 15.75 27.4798 20.95 27.1198C31.56 26.4598 42.21 27.1198 52.84 26.7898C55.47 24.6698 58.44 22.5798 61.96 22.5298C68.69 22.3598 75.43 22.3298 82.16 22.5498C85.46 22.5798 88.16 24.6898 90.8 26.4098C92.44 23.9598 94.05 21.2898 96.72 19.8498ZM101.36 27.5498C98.28 29.1498 99.3 33.0398 99.07 35.8498C94.55 35.8598 90.02 35.8498 85.5 35.8798C85.5 33.5598 83.37 31.4298 81.03 31.5198C75.04 31.4198 69.05 31.4198 63.06 31.5098C60.65 31.3798 58.49 33.5898 58.5 35.9598C53.18 35.7598 47.86 35.9398 42.55 35.7998C35.43 36.1698 28.24 35.3098 21.18 36.2498C17.4 37.2798 17.78 41.8698 17.94 44.9298C14.91 44.7798 11.87 44.9698 8.84 45.2398C9.22 64.4798 8.69 83.7298 9.03 102.98C8.78 107.71 8.79 112.45 9.24 117.17C22.13 116.5 35.02 117.49 47.91 116.99C54.61 117.19 61.31 116.65 68 117.12C84.38 116.55 100.78 117.51 117.15 116.76C117.14 115.34 117.14 113.92 117.14 112.5C120.03 112.5 122.93 112.5 125.82 112.52C125.93 110.96 126.07 109.41 126.1 107.85C129.1 107.86 132.11 107.86 135.12 107.81C134.77 97.5498 135.03 87.2898 134.89 77.0198C134.7 68.3498 135.49 59.6898 134.93 51.0198C134.56 45.9398 135.51 40.8298 134.67 35.7798C131.75 35.8498 128.83 35.8698 125.91 35.8598C125.66 33.0398 126.72 29.0998 123.62 27.5198C119.86 26.3098 115.83 27.0298 111.96 26.8498C108.44 26.9898 104.75 26.3598 101.36 27.5498Z" fill="black"/>
<path d="M101.36 27.5498C104.75 26.3598 108.44 26.9898 111.96 26.8498C115.83 27.0298 119.86 26.3098 123.62 27.5198C126.72 29.0998 125.66 33.0398 125.91 35.8598C116.96 35.8498 108.02 35.8698 99.0698 35.8498C99.2998 33.0398 98.2798 29.1498 101.36 27.5498Z" fill="#16C60C"/>
<path d="M58.4984 35.9597C58.4884 33.5897 60.6484 31.3797 63.0584 31.5097C69.0484 31.4197 75.0384 31.4197 81.0284 31.5197C83.3684 31.4297 85.4984 33.5597 85.4984 35.8797C85.5484 37.3997 85.5884 38.9197 85.6084 40.4397C76.5384 40.5297 67.4684 40.4197 58.3984 40.4897C58.4184 38.9797 58.4484 37.4697 58.4984 35.9597Z" fill="#3A96DD"/>
<path d="M21.18 36.2502C28.24 35.3102 35.43 36.1702 42.55 35.8002C44.56 38.1002 45.21 41.0702 45.21 44.0502L45.08 44.9002C36.03 44.6502 26.99 45.2302 17.94 44.9302C17.78 41.8702 17.4 37.2802 21.18 36.2502Z" fill="#E81224"/>
<path d="M42.5498 35.7998C47.8598 35.9398 53.1798 35.7598 58.4998 35.9598C58.4498 37.4698 58.4198 38.9798 58.3998 40.4898C54.2898 40.5398 50.1798 40.5598 46.0698 40.5198C45.7798 41.6898 45.4698 42.8698 45.2098 44.0498C45.2098 41.0698 44.5598 38.0998 42.5498 35.7998Z" fill="#EBA300"/>
<path d="M85.5 35.8798C90.02 35.8498 94.55 35.8598 99.07 35.8498C108.02 35.8698 116.96 35.8498 125.91 35.8598C128.83 35.8698 131.75 35.8498 134.67 35.7798C135.51 40.8298 134.56 45.9398 134.93 51.0198C135.49 59.6898 134.7 68.3498 134.89 77.0198C135.03 87.2898 134.77 97.5498 135.12 107.81C132.11 107.86 129.1 107.86 126.1 107.85C125.64 85.3598 126.23 62.8498 125.79 40.3598C112.4 40.3398 99 40.2498 85.61 40.4398C85.59 38.9198 85.55 37.3998 85.5 35.8798Z" fill="#EBA300"/>
<path d="M46.0681 40.5191C50.1781 40.5591 54.2881 40.5391 58.3981 40.4891C67.4681 40.4191 76.5381 40.5291 85.6081 40.4391C98.9981 40.2491 112.398 40.3391 125.788 40.3591C126.228 62.8491 125.638 85.3591 126.098 107.849C126.068 109.409 125.928 110.959 125.818 112.519C122.928 112.499 120.028 112.499 117.138 112.499C117.108 90.0291 117.198 67.5591 117.088 45.0891C93.0881 44.6691 69.0781 45.2891 45.0781 44.8991L45.2081 44.0491C45.4681 42.8691 45.7781 41.6891 46.0681 40.5191Z" fill="#FFB900"/>
<path d="M8.83984 45.2398C11.8698 44.9698 14.9098 44.7798 17.9398 44.9298C26.9898 45.2298 36.0298 44.6498 45.0798 44.8998C69.0798 45.2898 93.0898 44.6698 117.09 45.0898C117.2 67.5598 117.11 90.0298 117.14 112.5C117.14 113.92 117.14 115.34 117.15 116.76C100.78 117.51 84.3798 116.55 67.9998 117.12C61.3098 116.65 54.6098 117.19 47.9098 116.99C35.0198 117.49 22.1298 116.5 9.23984 117.17C8.78984 112.45 8.77984 107.71 9.02984 102.98C8.68984 83.7298 9.21984 64.4798 8.83984 45.2398Z" fill="#FFD679"/>
</g>
<defs>
<clipPath id="clip0_2_5067">
<rect width="144" height="144" fill="white"/>
</clipPath>
</defs>
</svg>
