<svg width="144" height="145" viewBox="0 0 144 145" fill="none" xmlns="http://www.w3.org/2000/svg">
<path d="M4.47999 4.7979C49.48 4.7979 94.47 4.7879 139.47 4.7979C139.47 49.7979 139.48 94.7979 139.46 139.798C94.47 139.808 49.48 139.788 4.47999 139.808C4.45999 94.7979 4.46999 49.7979 4.47999 4.7979ZM13.47 13.8279V49.9779V54.1679V90.4979C13.47 91.8379 13.47 93.1779 13.48 94.5279C13.46 106.618 13.48 118.708 13.47 130.798H22.45H40.46H49.66H53.84H62.87C68.85 130.788 74.84 130.818 80.82 130.788C83.9 130.798 86.97 130.808 90.04 130.798H94.34H103.48H121.49H130.47C130.47 118.768 130.47 106.748 130.47 94.7179C130.47 93.2979 130.47 91.8779 130.47 90.4679C130.47 78.3679 130.47 66.2779 130.47 54.1779C130.47 52.7579 130.47 51.3379 130.47 49.9279C130.47 37.8879 130.47 25.8579 130.47 13.8279C118.42 13.8279 106.36 13.8279 94.31 13.8279C92.92 13.8279 91.52 13.8279 90.13 13.8279C78.03 13.8279 65.94 13.8279 53.84 13.8279C52.46 13.8279 51.08 13.8279 49.7 13.8279C37.62 13.8279 25.55 13.8279 13.47 13.8279Z" fill="black"/>
<path d="M13.47 13.8281H49.7C48.81 25.6381 50.06 37.4981 49.04 49.2981C46.2 49.6181 43.34 49.8681 40.48 49.8481C34.47 49.8081 28.45 49.8281 22.43 49.8281C19.44 49.8381 16.46 49.8981 13.47 49.9781C13.47 37.9281 13.47 25.8781 13.47 13.8281Z" fill="#F2F2F2"/>
<path d="M53.84 13.8281H90.13C89.88 25.6681 90.6 37.5281 89.76 49.3381C83.87 50.0681 77.93 49.6881 72.02 49.7181C66.09 49.6781 60.14 50.0681 54.24 49.3281C53.47 42.6881 54.27 36.0181 54.05 29.3581C53.9 24.1781 53.82 19.0081 53.84 13.8281Z" fill="#F2F2F2"/>
<path d="M94.31 13.8281H130.47V49.9281C127.48 49.8981 124.49 49.8981 121.5 49.9381C121.49 43.8981 121.51 37.8481 121.49 31.7981C115.49 31.7981 109.48 31.7981 103.48 31.7981C103.46 37.9581 103.48 44.1181 103.47 50.2681C100.59 49.9781 97.72 49.5881 94.87 49.1281C93.95 37.3881 95.04 25.5881 94.31 13.8281Z" fill="#F2F2F2"/>
<path d="M13.47 54.168C16.46 54.188 19.45 54.198 22.44 54.208V90.408C19.45 90.438 16.46 90.468 13.47 90.498C13.47 78.388 13.47 66.278 13.47 54.168Z" fill="#F2F2F2"/>
<path d="M40.47 54.0381C43.32 54.1581 46.17 54.3281 49.01 54.5781C49.74 60.4481 49.36 66.3781 49.39 72.2781C49.36 78.1981 49.74 84.1381 49.03 90.0381C46.18 90.2881 43.33 90.4781 40.47 90.6081C40.47 78.4181 40.47 66.2281 40.47 54.0381Z" fill="#F2F2F2"/>
<path d="M54.26 54.6183C61.16 53.7683 68.1 54.7183 75.02 54.3483C79.91 54.1283 84.83 53.9883 89.71 54.5883C90.41 60.4883 90.1 66.4283 90.11 72.3583C90.1 78.1783 90.45 84.0183 89.72 89.8183C87.1 90.1783 84.47 90.5183 81.85 90.8783C81.85 91.9283 81.86 92.9883 81.86 94.0383C84.48 94.6283 87.1 95.1983 89.72 95.7583C90.5 107.418 89.6 119.118 90.04 130.798C86.97 130.808 83.9 130.798 80.82 130.788C81.09 114.628 81.15 98.4583 80.94 82.2983C81.18 78.9183 81.26 75.5183 80.76 72.1583C75.09 72.2883 69.41 72.0183 63.75 72.2683C63.55 72.4683 63.14 72.8583 62.93 73.0583C62.73 92.2983 62.91 111.548 62.87 130.798C59.86 130.798 56.85 130.798 53.84 130.798C54.68 119.118 53.4 107.398 54.24 95.7383C56.71 95.2483 59.18 94.7783 61.65 94.3183C61.9 93.1883 62.15 92.0483 62.39 90.9183C59.69 90.5383 57 90.1683 54.3 89.7883C53.33 82.6483 54.39 75.4583 54.03 68.2883C53.81 63.7283 53.72 59.1583 54.26 54.6183Z" fill="#F2F2F2"/>
<path d="M94.96 54.5983C97.79 54.3483 100.62 54.1683 103.47 54.0483V90.5983C100.62 90.4783 97.78 90.2883 94.94 90.0383C94.18 84.1583 94.58 78.2283 94.55 72.3283C94.58 66.4183 94.18 60.4783 94.96 54.5983Z" fill="#F2F2F2"/>
<path d="M121.5 54.2382C124.49 54.2082 127.48 54.1882 130.47 54.1782V90.4682C127.48 90.4582 124.49 90.4382 121.5 90.4182C121.5 78.3582 121.5 66.2982 121.5 54.2382Z" fill="#F2F2F2"/>
<path d="M13.48 94.5283C16.46 94.7183 19.45 94.9183 22.44 95.1283C22.44 107.018 22.43 118.908 22.45 130.798C19.45 130.798 16.46 130.798 13.47 130.798C13.48 118.708 13.46 106.618 13.48 94.5283Z" fill="#F2F2F2"/>
<path d="M40.47 94.3979C43.35 94.6379 46.21 94.9879 49.07 95.4279C50 107.188 48.86 119.018 49.66 130.798C46.6 130.798 43.53 130.798 40.46 130.798C40.48 118.658 40.46 106.528 40.47 94.3979Z" fill="#F2F2F2"/>
<path d="M94.9 95.5079C97.75 95.0479 100.6 94.6579 103.47 94.3779C103.48 106.518 103.46 118.658 103.48 130.798C100.43 130.798 97.39 130.798 94.34 130.798C95.01 119.038 93.91 107.248 94.9 95.5079Z" fill="#F2F2F2"/>
<path d="M121.5 94.688C124.49 94.718 127.48 94.728 130.47 94.718V130.798C127.48 130.798 124.48 130.798 121.49 130.798C121.51 118.758 121.49 106.728 121.5 94.688Z" fill="#F2F2F2"/>
<path d="M49.7 13.8281H53.84C53.82 19.0081 53.9 24.1781 54.05 29.3581C54.27 36.0181 53.47 42.6881 54.24 49.3281C60.14 50.0681 66.09 49.6781 72.02 49.7181C77.93 49.6881 83.87 50.0681 89.76 49.3381C90.6 37.5281 89.88 25.6681 90.13 13.8281H94.31C95.04 25.5881 93.95 37.3881 94.87 49.1281C97.72 49.5881 100.59 49.9781 103.47 50.2681C103.46 51.5281 103.46 52.7881 103.47 54.0481C100.62 54.1681 97.79 54.3481 94.96 54.5981C94.18 60.4781 94.58 66.4181 94.55 72.3281C94.58 78.2281 94.18 84.1581 94.94 90.0381C97.78 90.2881 100.62 90.4781 103.47 90.5981C103.46 91.8581 103.46 93.1181 103.47 94.3781C100.6 94.6581 97.75 95.0481 94.9 95.5081C93.91 107.248 95.01 119.038 94.34 130.798C92.91 130.798 91.48 130.798 90.04 130.798C89.6 119.118 90.5 107.418 89.72 95.7581C87.1 95.1981 84.48 94.6281 81.86 94.0381C81.86 92.9881 81.85 91.9281 81.85 90.8781C84.47 90.5181 87.1 90.1781 89.72 89.8181C90.45 84.0181 90.1 78.1781 90.11 72.3581C90.1 66.4281 90.41 60.4881 89.71 54.5881C84.83 53.9881 79.91 54.1281 75.02 54.3481C68.1 54.7181 61.16 53.7681 54.26 54.6181C53.72 59.1581 53.81 63.7281 54.03 68.2881C54.39 75.4581 53.33 82.6481 54.3 89.7881C57 90.1681 59.69 90.5381 62.39 90.9181C62.15 92.0481 61.9 93.1881 61.65 94.3181C59.18 94.7781 56.71 95.2481 54.24 95.7381C53.4 107.398 54.68 119.118 53.84 130.798C52.45 130.798 51.06 130.798 49.66 130.798C48.86 119.018 50 107.188 49.07 95.4281C46.21 94.9881 43.35 94.6381 40.47 94.3981C40.47 93.1281 40.47 91.8681 40.47 90.6081C43.33 90.4781 46.18 90.2881 49.03 90.0381C49.74 84.1381 49.36 78.1981 49.39 72.2781C49.36 66.3781 49.74 60.4481 49.01 54.5781C46.17 54.3281 43.32 54.1581 40.47 54.0381C40.47 52.6481 40.48 51.2481 40.48 49.8481C43.34 49.8681 46.2 49.6181 49.04 49.2981C50.06 37.4981 48.81 25.6381 49.7 13.8281Z" fill="#E5E5E5"/>
<path d="M13.47 49.9781C16.46 49.8981 19.44 49.8381 22.43 49.8281C22.43 51.2881 22.44 52.7481 22.44 54.2081C19.45 54.1981 16.46 54.1881 13.47 54.1681C13.47 52.7681 13.47 51.3781 13.47 49.9781Z" fill="#E5E5E5"/>
<path d="M121.5 49.9381C124.49 49.8981 127.48 49.8981 130.47 49.9281V54.1781C127.48 54.1881 124.49 54.2081 121.5 54.2381C121.5 52.8081 121.5 51.3681 121.5 49.9381Z" fill="#E5E5E5"/>
<path d="M13.47 90.4982L22.44 90.4082V95.1282C19.45 94.9182 16.46 94.7182 13.48 94.5282C13.47 93.1782 13.47 91.8382 13.47 90.4982Z" fill="#E5E5E5"/>
<path d="M121.5 90.418C124.49 90.438 127.48 90.458 130.47 90.468V94.718C127.48 94.728 124.49 94.718 121.5 94.688C121.5 93.268 121.5 91.838 121.5 90.418Z" fill="#E5E5E5"/>
<path d="M103.48 31.7983H121.49C121.51 37.8483 121.49 43.8983 121.5 49.9383V54.2383V90.4183V94.6883C121.49 106.728 121.51 118.758 121.49 130.798C115.49 130.798 109.48 130.798 103.48 130.798C103.46 118.658 103.48 106.518 103.47 94.3783C103.46 93.1183 103.46 91.8583 103.47 90.5983C103.47 78.4183 103.47 66.2283 103.47 54.0483C103.46 52.7883 103.46 51.5283 103.47 50.2683C103.48 44.1183 103.46 37.9583 103.48 31.7983Z" fill="#0078D7"/>
<path d="M22.43 49.8282C28.45 49.8282 34.47 49.8082 40.48 49.8482C40.48 51.2482 40.47 52.6482 40.47 54.0382V90.6082V94.3982C40.46 106.528 40.48 118.658 40.46 130.798C34.46 130.798 28.45 130.798 22.45 130.798C22.43 118.908 22.44 107.018 22.44 95.1282C22.44 93.5482 22.44 91.9782 22.44 90.4082C22.44 78.3482 22.44 66.2782 22.44 54.2082C22.44 52.7482 22.43 51.2882 22.43 49.8282Z" fill="#16C60C"/>
<path d="M62.93 73.0581C63.14 72.8581 63.55 72.4681 63.75 72.2681C69.41 72.0181 75.09 72.2881 80.76 72.1581C81.26 75.5181 81.18 78.9181 80.94 82.2981C81.15 98.4581 81.09 114.628 80.82 130.788C74.84 130.818 68.85 130.788 62.87 130.798C62.91 111.548 62.73 92.2981 62.93 73.0581Z" fill="#F03A17"/>
</svg>
